<svg xmlns="http://www.w3.org/2000/svg" viewBox="0 0 1360 960" preserveAspectRatio="none">
 <defs>
  <filter id="rough" x="-3%" y="-3%" width="106%" height="106%"><feTurbulence type="fractalNoise" baseFrequency=".065 .13" numOctaves="3" seed="17" result="grain"/><feDisplacementMap in="SourceGraphic" in2="grain" scale="15" xChannelSelector="R" yChannelSelector="G"/></filter>
  <filter id="dry" x="-4%" y="-4%" width="108%" height="108%"><feTurbulence type="fractalNoise" baseFrequency=".18 .08" numOctaves="3" seed="5"/><feColorMatrix type="matrix" values="0 0 0 0 .05 0 0 0 0 .07 0 0 0 0 .055 0 0 0 12 -6"/><feComposite in2="SourceGraphic" operator="in"/></filter>
 </defs>
 <path d="M27 62 86 32 175 45 253 19 398 29 542 16 620 34 757 20 913 26 1026 15 1162 27 1322 22 1315 74 1340 95 1329 185 1344 247 1330 369 1342 462 1330 569 1340 690 1328 812 1340 889 1303 929 1163 936 1050 925 911 945 803 931 680 945 537 930 404 945 293 933 185 946 70 933 22 899 33 797 16 712 30 609 16 527 33 425 21 350 36 249 22 167Z" fill="#0c1411" filter="url(#rough)"/>
 <path d="m10 86 124-62 156 9 153-20 185 4 154 4 184-11 194 8 177-10-4 235 12 163-9 182 12 168-13 164-109 22-176-7-170 12-168-9-173 11-166-10-194 11-223-24 14-188-14-161 14-176-7-164Z" fill="#0c1411" filter="url(#dry)"/>
 <g fill="none" stroke="#0c1411" opacity=".6" stroke-linecap="round"><path d="m42 30 107-11m-85 15 205-20m882 0 164-6M22 193l-7 102m-2 325 4 96m1325-256 8 112M58 942l130 4m93 4 94-3m661 2 169-7" stroke-width="5"/><path d="m85 17 80-6m-39 940 126 3m1083-297 4 96M8 361v59" stroke-width="2"/></g>
</svg>
